<?xml version="1.0" encoding="utf-8"?>
<!-- Generator: Adobe Illustrator 26.4.1, SVG Export Plug-In . SVG Version: 6.00 Build 0)  -->
<svg version="1.1" id="Layer_1" xmlns="http://www.w3.org/2000/svg" xmlns:xlink="http://www.w3.org/1999/xlink" x="0px" y="0px"
	 viewBox="0 0 512 512" style="enable-background:new 0 0 512 512;" xml:space="preserve">
<style type="text/css">
	.st0{opacity:0.8;fill:url(#SVGID_1_);}
	.st1{display:none;}
	.st2{display:inline;fill:none;stroke:#FFFFFF;stroke-width:50;stroke-miterlimit:10;}
	.st3{display:inline;opacity:0.7;fill:none;stroke:#FFFFFF;stroke-width:50;stroke-miterlimit:10;}
	.st4{display:inline;opacity:0.5;fill:none;stroke:#FFFFFF;stroke-width:50;stroke-miterlimit:10;}
	.st5{display:inline;opacity:0.3;fill:none;stroke:#FFFFFF;stroke-width:50;stroke-miterlimit:10;}
	.st6{display:inline;opacity:0.1;fill:none;stroke:#FFFFFF;stroke-width:50;stroke-miterlimit:10;}
	.st7{fill:#FFFFFF;stroke:#27AAE1;stroke-linecap:round;stroke-linejoin:round;stroke-miterlimit:10;}
	.st8{opacity:0.7;}
	.st9{opacity:0.5;}
	.st10{opacity:0.3;}
	.st11{opacity:0.1;}
	.st12{opacity:0.8;}
</style>
<linearGradient id="SVGID_1_" gradientUnits="userSpaceOnUse" x1="256" y1="40.9645" x2="256" y2="471.0355">
	<stop  offset="0" style="stop-color:#39DBFF"/>
	<stop  offset="0.1678" style="stop-color:#3ACFF7"/>
	<stop  offset="1" style="stop-color:#3C95D0"/>
</linearGradient>
<path class="st0" d="M448.15,159.38C420.97,105.41,372.1,65.14,314.07,48.9c-18.82-5.26-38.36-7.93-58.07-7.93
	c-71.54,0-138.2,35.43-178.29,94.79C53.67,171.33,40.96,212.91,40.96,256c0,43.41,12.87,85.24,37.24,120.98
	c40.14,58.9,106.61,94.06,177.8,94.06c49.84,0,98.42-17.44,136.79-49.11c49.72-41.04,78.24-101.52,78.24-165.92
	C471.04,222.04,463.34,189.52,448.15,159.38z M256,405.84c-82.55,0-149.47-66.92-149.47-149.47c0-82.56,66.92-149.48,149.47-149.48
	s149.47,66.92,149.47,149.48C405.47,338.92,338.55,405.84,256,405.84z"/>
<g class="st1">
	<path class="st2" d="M118.56,163.33c29.79-44.09,80.23-73.08,137.44-73.08c15.51,0,30.53,2.13,44.77,6.12"/>
	<path class="st3" d="M118.94,349.24c-18.11-26.56-28.69-58.66-28.69-93.24c0-34.33,10.44-66.22,28.31-92.67"/>
	<path class="st4" d="M361.43,383.9c-28.65,23.64-65.38,37.85-105.43,37.85c-56.97,0-107.22-28.74-137.06-72.51"/>
	<path class="st5" d="M404.12,181.54c11.28,22.39,17.63,47.68,17.63,74.46c0,51.49-23.48,97.5-60.32,127.9"/>
	<path class="st6" d="M300.77,96.37c45.21,12.65,82.61,44,103.35,85.17"/>
</g>
<g>
	<g>
		<path class="st7" d="M317.38,37.1l-16.06,57.38C286.64,90.38,271.4,88.3,256,88.3c-55.8,0-107.8,27.65-139.09,73.95L67.55,128.9
			C109.93,66.17,180.38,28.72,256,28.72C276.83,28.72,297.48,31.54,317.38,37.1z"/>
	</g>
	<g class="st8">
		<path class="st7" d="M117.31,350.32l-49.23,33.55C42.32,346.09,28.72,301.88,28.72,256c0-45.54,13.43-89.49,38.83-127.1
			l49.36,33.34C98.18,189.97,88.3,222.38,88.3,256C88.3,289.86,98.33,322.47,117.31,350.32z"/>
	</g>
	<g class="st9">
		<path class="st7" d="M400.58,431.37c-40.56,33.48-91.91,51.91-144.58,51.91c-75.25,0-145.5-37.16-187.93-99.41l49.23-33.55
			c31.32,45.96,83.17,73.39,138.69,73.39c38.87,0,76.75-13.59,106.67-38.28L400.58,431.37z"/>
	</g>
	<g class="st10">
		<path class="st7" d="M483.28,256c0,68.07-30.14,132-82.7,175.37l-37.92-45.94c38.79-32.02,61.04-79.19,61.04-129.43
			c0-26.51-5.99-51.85-17.82-75.33l53.21-26.8C475.15,185.74,483.28,220.11,483.28,256z"/>
	</g>
	<g class="st11">
		<path class="st7" d="M459.1,153.87l-53.21,26.8c-21.21-42.11-59.33-73.54-104.58-86.19l16.06-57.38
			C378.71,54.27,430.37,96.83,459.1,153.87z"/>
	</g>
</g>
<g>
	<g class="st12">
		<path d="M188.02,192.22c25.66,0,41.86,5.1,53.15,15.83c8.92,8.74,15.47,21.48,15.47,38.95c0,21.29-8.74,38.59-22.75,49.14
			c-13.83,10.37-31.49,14.38-53.87,14.38h-42.59v-5.1c15.65-1.46,16.38-2.73,16.38-17.66v-72.62c0-15.65-2.18-16.38-16.38-17.84
			v-5.1H188.02z M169.64,286.31c0,13.65,5.82,17.47,19.48,17.47c32.76,0,49.51-22.39,49.51-54.24c0-19.84-6.73-34.95-21.11-43.68
			c-8.37-5.28-18.93-7.28-31.12-7.28c-8.19,0-12.56,1.09-14.38,2.55c-1.64,1.09-2.37,3.09-2.37,10.19V286.31z"/>
		<path d="M309.78,228.44c22.75,0,39.68,17.29,39.68,40.77c0,29.49-21.84,43.5-39.68,43.5c-25.12,0-40.41-20.2-40.41-40.59
			C269.38,242.45,292.49,228.44,309.78,228.44z M307.6,234.62c-11.1,0-21.11,10.74-21.11,31.85c0,23.12,10.19,39.86,25.12,39.86
			c11.28,0,20.75-8.19,20.75-33.13C332.35,251.92,323.61,234.62,307.6,234.62z"/>
		<path d="M369.11,313.07c-6.55,0-11.1-4.73-11.1-11.65c0-6.55,4.55-11.65,11.1-11.65c6.55,0,11.47,5.1,11.47,11.65
			C380.58,308.34,375.66,313.07,369.11,313.07z"/>
	</g>
</g>
</svg>
