<?xml version="1.0" encoding="utf-8"?>
<!-- Generator: Adobe Illustrator 26.4.1, SVG Export Plug-In . SVG Version: 6.00 Build 0)  -->
<svg version="1.1" id="Layer_1" xmlns="http://www.w3.org/2000/svg" xmlns:xlink="http://www.w3.org/1999/xlink" x="0px" y="0px"
	 viewBox="0 0 73.3 16" style="enable-background:new 0 0 73.3 16;" xml:space="preserve">
<g>
	<path style="fill:#FFFFFF;" d="M15,8.5c0,1-0.2,1.9-0.5,2.7c-0.3,0.8-0.8,1.5-1.3,2s-1.1,0.9-1.7,1.2c-1.3,0.6-2.9,0.9-4.8,0.9H0.3
		v-0.9c0.6,0,1-0.1,1.3-0.2C2,14.1,2.2,14,2.3,13.7c0.1-0.2,0.1-0.5,0.1-1V4c0-0.6-0.1-1-0.4-1.3S1.2,2.3,0.3,2.3v-1l3-0.1
		c0.1,0,0.5,0,1.3,0s1.2,0,1.3,0C7,1.3,8,1.3,8.8,1.5c0.8,0.1,1.5,0.3,2.2,0.6c0.6,0.2,1.2,0.6,1.7,1c0.5,0.4,0.9,0.9,1.3,1.5
		c0.4,0.6,0.6,1.2,0.8,1.8S15,7.8,15,8.5z M11.7,8.5c0-1.4-0.3-2.7-0.8-3.6c-0.6-1-1.3-1.6-2.2-2C8.2,2.6,7.8,2.5,7.3,2.5
		c-0.5,0-1.1-0.1-2-0.1v9.8c0,0.6,0,1,0.1,1.2c0.1,0.3,0.2,0.5,0.5,0.6c0.3,0.1,0.7,0.2,1.2,0.2c1.7,0,2.8-0.6,3.5-1.7
		C11.4,11.3,11.7,10,11.7,8.5z"/>
	<path style="fill:#FFFFFF;" d="M26.7,11.1c0,0.9-0.2,1.7-0.7,2.4s-1.1,1.2-1.8,1.6c-0.8,0.4-1.6,0.5-2.5,0.5
		c-0.9,0-1.7-0.2-2.4-0.5c-0.8-0.3-1.4-0.8-1.9-1.5c-0.5-0.7-0.7-1.5-0.7-2.5c0-1.5,0.5-2.6,1.5-3.4c1-0.8,2.2-1.2,3.6-1.2
		c1,0,1.9,0.2,2.7,0.6s1.3,1,1.7,1.7S26.7,10.3,26.7,11.1z M23.8,11.1c0-1.2-0.2-2-0.5-2.6s-0.9-0.9-1.8-0.9c-0.6,0-1,0.1-1.3,0.4
		c-0.3,0.3-0.5,0.7-0.7,1.2s-0.2,1.2-0.2,2.1c0,1.1,0.1,1.9,0.4,2.6s0.9,1,1.8,1c0.6,0,1.1-0.2,1.4-0.5c0.3-0.4,0.5-0.8,0.6-1.3
		C23.8,12.3,23.8,11.7,23.8,11.1z"/>
	<path style="fill:#FFFFFF;" d="M30.4,0.4v6.4h7.9V0.4h2v15h-2V8.5h-7.9v6.9h-2v-15H30.4z"/>
	<path style="fill:#FFFFFF;" d="M51.8,15.3c-0.3,0.2-0.7,0.3-1.3,0.3c-0.5,0-0.8-0.1-1.1-0.4c-0.3-0.3-0.4-0.7-0.4-1.3
		c-0.5,0.6-1.1,1-1.7,1.3c-0.7,0.3-1.4,0.4-2.1,0.4c-0.5,0-1-0.1-1.4-0.2c-0.4-0.1-0.8-0.3-1.1-0.5c-0.3-0.2-0.6-0.5-0.8-0.9
		c-0.2-0.4-0.3-0.9-0.3-1.4c0-0.6,0.1-1.1,0.3-1.5c0.2-0.4,0.5-0.7,0.8-1c0.3-0.2,0.7-0.4,1.2-0.6c0.4-0.1,0.9-0.2,1.4-0.3
		c0.5-0.1,1-0.2,1.4-0.2c0.4,0,0.8-0.1,1.2-0.2c0.3-0.1,0.6-0.2,0.8-0.4C48.9,8.2,49,8,49,7.6c0-0.4-0.1-0.7-0.2-0.9
		c-0.1-0.2-0.3-0.4-0.6-0.5c-0.2-0.1-0.5-0.2-0.8-0.3s-0.6-0.1-0.9-0.1c-0.8,0-1.4,0.1-1.9,0.4c-0.5,0.3-0.8,0.8-0.8,1.6h-1.8
		c0-0.7,0.2-1.2,0.4-1.7c0.3-0.5,0.6-0.8,1-1.1c0.4-0.3,0.9-0.5,1.4-0.6c0.5-0.1,1.1-0.2,1.7-0.2c0.5,0,1,0,1.5,0.1
		c0.5,0.1,0.9,0.2,1.3,0.4c0.4,0.2,0.7,0.5,0.9,0.9c0.2,0.4,0.4,0.9,0.4,1.5v5.6c0,0.4,0,0.7,0.1,0.9c0,0.2,0.2,0.3,0.5,0.3
		c0.2,0,0.3,0,0.5-0.1V15.3z M48.9,9.7c-0.2,0.2-0.5,0.3-0.9,0.4s-0.7,0.1-1.1,0.2c-0.4,0-0.8,0.1-1.2,0.2s-0.8,0.2-1.1,0.3
		c-0.3,0.1-0.6,0.3-0.8,0.6s-0.3,0.6-0.3,1.1c0,0.3,0.1,0.5,0.2,0.7s0.3,0.4,0.5,0.5c0.2,0.1,0.4,0.2,0.7,0.3s0.5,0.1,0.8,0.1
		c0.6,0,1.1-0.1,1.5-0.2s0.8-0.4,1-0.6c0.3-0.2,0.5-0.5,0.6-0.8c0.1-0.3,0.2-0.6,0.2-0.8V9.7z"/>
	<path style="fill:#FFFFFF;" d="M54.6,0.4V6h0c0.3-0.6,0.8-1,1.4-1.3c0.6-0.3,1.3-0.4,2.1-0.4c0.8,0,1.6,0.2,2.2,0.5
		c0.6,0.3,1.1,0.7,1.6,1.2s0.7,1.1,0.9,1.8c0.2,0.7,0.3,1.4,0.3,2.2s-0.1,1.5-0.3,2.2c-0.2,0.7-0.5,1.3-0.9,1.8
		c-0.4,0.5-0.9,0.9-1.6,1.2s-1.3,0.4-2.2,0.4c-0.3,0-0.6,0-0.9-0.1c-0.3-0.1-0.7-0.1-1-0.3s-0.6-0.3-0.9-0.5
		c-0.3-0.2-0.5-0.5-0.7-0.8h0v1.4h-1.8v-15H54.6z M61,8.3c-0.1-0.5-0.3-0.9-0.6-1.3c-0.3-0.4-0.6-0.7-1-0.9
		c-0.4-0.2-0.9-0.3-1.5-0.3c-0.6,0-1.1,0.1-1.5,0.4c-0.4,0.2-0.8,0.5-1,0.9c-0.3,0.4-0.5,0.8-0.6,1.3c-0.1,0.5-0.2,1-0.2,1.5
		c0,0.5,0.1,1,0.2,1.5c0.1,0.5,0.3,0.9,0.6,1.3c0.3,0.4,0.6,0.7,1.1,0.9c0.4,0.2,1,0.3,1.6,0.3s1.1-0.1,1.5-0.4
		c0.4-0.2,0.7-0.6,1-0.9c0.3-0.4,0.4-0.8,0.5-1.3c0.1-0.5,0.2-1,0.2-1.6C61.2,9.3,61.1,8.8,61,8.3z"/>
	<path style="fill:#FFFFFF;" d="M64.5,2.5V0.4h1.8v2.2H64.5z M66.3,4.5v10.9h-1.8V4.5H66.3z"/>
	<path style="fill:#FFFFFF;" d="M73,4.5v1.6h-2.2v6.7c0,0.2,0,0.4,0.1,0.5c0,0.1,0.1,0.2,0.2,0.3c0.1,0.1,0.2,0.1,0.4,0.1
		c0.2,0,0.4,0,0.7,0H73v1.6h-1.4c-0.5,0-0.9,0-1.2-0.1c-0.3-0.1-0.6-0.2-0.8-0.3c-0.2-0.2-0.4-0.4-0.5-0.7C69.1,13.9,69,13.5,69,13
		V6.1h-1.8V4.5H69V1.2h1.8v3.3H73z"/>
</g>
</svg>
