<?xml version="1.0" encoding="utf-8"?>
<!-- Generator: Adobe Illustrator 26.4.1, SVG Export Plug-In . SVG Version: 6.00 Build 0)  -->
<svg version="1.1" id="Layer_1" xmlns="http://www.w3.org/2000/svg" xmlns:xlink="http://www.w3.org/1999/xlink" x="0px" y="0px"
	 viewBox="0 0 512 512" style="enable-background:new 0 0 512 512;" xml:space="preserve">
<style type="text/css">
	.st0{opacity:0.8;fill:url(#SVGID_1_);}
	.st1{display:none;}
	.st2{display:inline;fill:none;stroke:#FFFFFF;stroke-width:50;stroke-miterlimit:10;}
	.st3{display:inline;opacity:0.7;fill:none;stroke:#FFFFFF;stroke-width:50;stroke-miterlimit:10;}
	.st4{display:inline;opacity:0.5;fill:none;stroke:#FFFFFF;stroke-width:50;stroke-miterlimit:10;}
	.st5{display:inline;opacity:0.3;fill:none;stroke:#FFFFFF;stroke-width:50;stroke-miterlimit:10;}
	.st6{display:inline;opacity:0.1;fill:none;stroke:#FFFFFF;stroke-width:50;stroke-miterlimit:10;}
	.st7{fill:#FFFFFF;stroke:#27AAE1;stroke-linecap:round;stroke-linejoin:round;stroke-miterlimit:10;}
	.st8{opacity:0.7;}
	.st9{opacity:0.5;}
	.st10{opacity:0.3;}
	.st11{opacity:0.1;}
	.st12{opacity:0.8;}
	.st13{fill:#31C5FF;}
</style>
<linearGradient id="SVGID_1_" gradientUnits="userSpaceOnUse" x1="256" y1="47.29" x2="256" y2="464.71">
	<stop  offset="0" style="stop-color:#39DBFF"/>
	<stop  offset="0.1678" style="stop-color:#3ACFF7"/>
	<stop  offset="1" style="stop-color:#3C95D0"/>
</linearGradient>
<path class="st0" d="M442.5,162.22c-26.38-52.38-73.82-91.47-130.14-107.23c-18.27-5.11-37.23-7.7-56.36-7.7
	c-69.44,0-134.13,34.39-173.05,92C59.62,173.82,47.29,214.18,47.29,256c0,42.13,12.49,82.73,36.14,117.42
	c38.96,57.17,103.47,91.29,172.57,91.29c48.37,0,95.52-16.93,132.77-47.67c48.26-39.83,75.94-98.53,75.94-161.04
	C464.71,223.04,457.24,191.48,442.5,162.22z M256,401.43c-80.12,0-145.07-64.95-145.07-145.07c0-80.13,64.95-145.08,145.07-145.08
	s145.07,64.95,145.07,145.08C401.07,336.48,336.12,401.43,256,401.43z"/>
<g class="st1">
	<path class="st2" d="M118.56,163.33c29.79-44.09,80.23-73.08,137.44-73.08c15.51,0,30.53,2.13,44.77,6.12"/>
	<path class="st3" d="M118.94,349.24c-18.11-26.56-28.69-58.66-28.69-93.24c0-34.33,10.44-66.22,28.31-92.67"/>
	<path class="st4" d="M361.43,383.9c-28.65,23.64-65.38,37.85-105.43,37.85c-56.97,0-107.22-28.74-137.06-72.51"/>
	<path class="st5" d="M404.12,181.54c11.28,22.39,17.63,47.68,17.63,74.46c0,51.49-23.48,97.5-60.32,127.9"/>
	<path class="st6" d="M300.77,96.37c45.21,12.65,82.61,44,103.35,85.17"/>
</g>
<g>
	<g>
		<path class="st7" d="M317.61,42.09l-16.13,56.07c-14.73-4.01-30.03-6.04-45.49-6.04c-56.02,0-108.22,27.02-139.63,72.27
			L66.82,131.8c42.55-61.31,113.27-97.9,189.18-97.9C276.91,33.89,297.64,36.65,317.61,42.09z"/>
	</g>
	<g class="st8">
		<path class="st7" d="M116.77,348.17l-49.43,32.79C41.48,344.04,27.83,300.83,27.83,256c0-44.5,13.48-87.45,38.98-124.2
			l49.56,32.59c-18.8,27.09-28.73,58.76-28.73,91.62C87.64,289.09,97.71,320.96,116.77,348.17z"/>
	</g>
	<g class="st9">
		<path class="st7" d="M401.15,427.38c-40.72,32.71-92.27,50.73-145.15,50.73c-75.54,0-146.07-36.31-188.66-97.15l49.43-32.79
			c31.44,44.91,83.49,71.72,139.23,71.72c39.02,0,77.05-13.28,107.08-37.41L401.15,427.38z"/>
	</g>
	<g class="st10">
		<path class="st7" d="M484.17,256c0,66.52-30.26,128.99-83.02,171.38l-38.07-44.9c38.94-31.29,61.28-77.39,61.28-126.48
			c0-25.9-6.01-50.67-17.89-73.61l53.42-26.19C476,187.34,484.17,220.92,484.17,256z"/>
	</g>
	<g class="st11">
		<path class="st7" d="M459.89,156.2l-53.42,26.19c-21.3-41.15-59.56-71.86-104.98-84.23l16.13-56.07
			C379.19,58.86,431.05,100.46,459.89,156.2z"/>
	</g>
</g>
<g>
	<g class="st12">
		<path class="st13" d="M188.02,192.22c25.66,0,41.86,5.1,53.15,15.83c8.92,8.74,15.47,21.48,15.47,38.95
			c0,21.29-8.74,38.59-22.75,49.14c-13.83,10.37-31.49,14.38-53.87,14.38h-42.59v-5.1c15.65-1.46,16.38-2.73,16.38-17.66v-72.62
			c0-15.65-2.18-16.38-16.38-17.84v-5.1H188.02z M169.64,286.31c0,13.65,5.82,17.47,19.48,17.47c32.76,0,49.51-22.39,49.51-54.24
			c0-19.84-6.73-34.95-21.11-43.68c-8.37-5.28-18.93-7.28-31.12-7.28c-8.19,0-12.56,1.09-14.38,2.55
			c-1.64,1.09-2.37,3.09-2.37,10.19V286.31z"/>
		<path class="st13" d="M309.78,228.44c22.75,0,39.68,17.29,39.68,40.77c0,29.49-21.84,43.5-39.68,43.5
			c-25.12,0-40.41-20.2-40.41-40.59C269.38,242.45,292.49,228.44,309.78,228.44z M307.6,234.62c-11.1,0-21.11,10.74-21.11,31.85
			c0,23.12,10.19,39.86,25.12,39.86c11.28,0,20.75-8.19,20.75-33.13C332.35,251.92,323.61,234.62,307.6,234.62z"/>
		<path class="st13" d="M369.11,313.07c-6.55,0-11.1-4.73-11.1-11.65c0-6.55,4.55-11.65,11.1-11.65c6.55,0,11.47,5.1,11.47,11.65
			C380.58,308.34,375.66,313.07,369.11,313.07z"/>
	</g>
</g>
</svg>
