<?xml version="1.0" encoding="utf-8"?>
<!-- Generator: Adobe Illustrator 26.4.1, SVG Export Plug-In . SVG Version: 6.00 Build 0)  -->
<svg version="1.1" id="Layer_1" xmlns="http://www.w3.org/2000/svg" xmlns:xlink="http://www.w3.org/1999/xlink" x="0px" y="0px"
	 viewBox="0 0 93.6 19.1" style="enable-background:new 0 0 93.6 19.1;" xml:space="preserve">
<g>
	<path style="fill:#F4F7F9;" d="M2.1,12.6c0.2,0.3,0.4,0.5,0.7,0.7c0.3,0.2,0.6,0.3,0.9,0.3c0.3,0.1,0.7,0.1,1.1,0.1
		c0.3,0,0.6,0,0.9-0.1s0.6-0.1,0.9-0.2c0.3-0.1,0.5-0.3,0.6-0.5c0.2-0.2,0.3-0.5,0.3-0.8c0-0.5-0.2-0.8-0.5-1.1
		c-0.4-0.2-0.8-0.4-1.3-0.6C5,10.3,4.4,10.1,3.8,10C3.2,9.9,2.6,9.7,2.1,9.5C1.5,9.3,1.1,9,0.8,8.6C0.4,8.2,0.2,7.7,0.2,7
		c0-0.5,0.1-1,0.4-1.4c0.2-0.4,0.6-0.7,0.9-1s0.8-0.4,1.3-0.5c0.5-0.1,1-0.2,1.4-0.2C4.9,3.9,5.5,3.9,6,4c0.5,0.1,1,0.3,1.4,0.5
		c0.4,0.3,0.7,0.6,1,1c0.2,0.4,0.4,1,0.4,1.6H7c0-0.3-0.1-0.6-0.3-0.9C6.5,6.2,6.3,6,6.1,5.9C5.9,5.7,5.6,5.6,5.3,5.6
		C5,5.5,4.7,5.5,4.4,5.5c-0.3,0-0.5,0-0.8,0.1S3.1,5.6,2.9,5.7C2.7,5.8,2.5,6,2.3,6.2C2.2,6.3,2.1,6.6,2.1,6.8
		c0,0.3,0.1,0.6,0.3,0.8C2.7,7.8,2.9,8,3.3,8.1C3.6,8.2,4,8.4,4.4,8.5s0.8,0.2,1.3,0.3C6.1,8.8,6.6,9,7,9.1c0.4,0.1,0.8,0.3,1.1,0.6
		c0.3,0.2,0.6,0.5,0.8,0.9c0.2,0.3,0.3,0.8,0.3,1.3c0,0.7-0.1,1.2-0.4,1.6c-0.3,0.4-0.6,0.8-1.1,1.1c-0.4,0.3-0.9,0.5-1.5,0.6
		c-0.6,0.1-1.1,0.2-1.6,0.2c-0.6,0-1.2-0.1-1.7-0.2c-0.5-0.1-1-0.3-1.4-0.6s-0.8-0.7-1-1.1c-0.3-0.5-0.4-1-0.4-1.7h1.8
		C1.8,12,1.9,12.3,2.1,12.6z"/>
	<path style="fill:#F4F7F9;" d="M12,4.1v1.5h0c0.3-0.6,0.8-1,1.4-1.3s1.3-0.4,2.1-0.4c0.8,0,1.6,0.2,2.2,0.5
		c0.6,0.3,1.1,0.7,1.6,1.2c0.4,0.5,0.7,1.1,0.9,1.8c0.2,0.7,0.3,1.4,0.3,2.2c0,0.8-0.1,1.5-0.3,2.2c-0.2,0.7-0.5,1.3-0.9,1.8
		s-0.9,0.9-1.6,1.2c-0.6,0.3-1.3,0.4-2.2,0.4c-0.3,0-0.6,0-0.9-0.1c-0.3-0.1-0.7-0.1-1-0.3c-0.3-0.1-0.6-0.3-0.9-0.5
		c-0.3-0.2-0.5-0.5-0.7-0.8h0v5.6h-1.8v-15H12z M18.4,8c-0.1-0.5-0.3-0.9-0.6-1.3s-0.6-0.7-1-0.9c-0.4-0.2-0.9-0.3-1.5-0.3
		c-0.6,0-1.1,0.1-1.5,0.4s-0.8,0.5-1,0.9s-0.5,0.8-0.6,1.3c-0.1,0.5-0.2,1-0.2,1.5c0,0.5,0.1,1,0.2,1.5c0.1,0.5,0.3,0.9,0.6,1.3
		s0.6,0.7,1.1,0.9c0.4,0.2,1,0.3,1.6,0.3s1.1-0.1,1.5-0.4c0.4-0.2,0.7-0.6,1-0.9c0.3-0.4,0.4-0.8,0.5-1.3c0.1-0.5,0.2-1,0.2-1.6
		C18.6,9,18.5,8.5,18.4,8z"/>
	<path style="fill:#F4F7F9;" d="M29.2,14.3c-0.8,0.6-1.8,0.9-3.1,0.9c-0.9,0-1.6-0.1-2.3-0.4c-0.6-0.3-1.2-0.7-1.6-1.2
		c-0.4-0.5-0.8-1.1-1-1.8c-0.2-0.7-0.3-1.5-0.4-2.3c0-0.8,0.1-1.6,0.4-2.3c0.3-0.7,0.6-1.3,1.1-1.8s1-0.9,1.6-1.2
		c0.6-0.3,1.3-0.4,2-0.4c1,0,1.8,0.2,2.4,0.6C29.1,4.9,29.6,5.4,30,6c0.4,0.6,0.7,1.3,0.8,2c0.1,0.7,0.2,1.4,0.2,2.1h-8.1
		c0,0.5,0,0.9,0.2,1.4s0.3,0.8,0.6,1.1s0.6,0.6,1.1,0.8c0.4,0.2,0.9,0.3,1.5,0.3c0.8,0,1.4-0.2,1.9-0.5c0.5-0.3,0.8-0.9,1-1.6h1.8
		C30.6,12.8,30,13.7,29.2,14.3z M28.8,7.3c-0.2-0.4-0.4-0.7-0.7-1c-0.3-0.3-0.6-0.5-1-0.7S26.4,5.5,26,5.5c-0.5,0-0.9,0.1-1.2,0.2
		s-0.7,0.4-1,0.7s-0.5,0.6-0.6,1c-0.2,0.4-0.2,0.8-0.3,1.2h6.2C29.1,8.1,29,7.7,28.8,7.3z"/>
	<path style="fill:#F4F7F9;" d="M33.5,4.1v1.7h0c0.7-1.3,1.9-2,3.5-2c0.7,0,1.3,0.1,1.8,0.3S39.7,4.6,40,5c0.3,0.4,0.5,0.8,0.6,1.2
		c0.1,0.5,0.2,1,0.2,1.6V15H39V7.6C39,7,38.8,6.4,38.4,6c-0.4-0.4-0.9-0.6-1.6-0.6c-0.5,0-1,0.1-1.4,0.3c-0.4,0.2-0.7,0.4-1,0.7
		c-0.3,0.3-0.5,0.7-0.6,1.1s-0.2,0.9-0.2,1.4V15h-1.8V4.1H33.5z"/>
	<path style="fill:#F4F7F9;" d="M50.3,15v-1.5h0c-0.3,0.6-0.8,1-1.4,1.3s-1.3,0.4-2.1,0.4c-0.8,0-1.6-0.2-2.2-0.5s-1.1-0.7-1.6-1.2
		c-0.4-0.5-0.7-1.1-0.9-1.8c-0.2-0.7-0.3-1.4-0.3-2.2c0-0.8,0.1-1.5,0.3-2.2s0.5-1.3,0.9-1.8C43.5,5,44,4.6,44.6,4.3
		s1.3-0.5,2.2-0.5c0.3,0,0.6,0,0.9,0.1c0.3,0.1,0.6,0.2,1,0.3s0.6,0.3,0.9,0.5c0.3,0.2,0.5,0.5,0.7,0.8h0V0h1.8v15H50.3z M43.9,11.1
		c0.1,0.5,0.3,0.9,0.6,1.3c0.3,0.4,0.6,0.7,1.1,0.9c0.4,0.2,0.9,0.3,1.5,0.3c0.6,0,1.1-0.1,1.5-0.4s0.8-0.5,1-0.9
		c0.3-0.4,0.5-0.8,0.6-1.3s0.2-1,0.2-1.5c0-0.5-0.1-1-0.2-1.5s-0.3-0.9-0.6-1.3C49.3,6.3,49,6,48.5,5.8c-0.4-0.2-1-0.3-1.6-0.3
		c-0.6,0-1.1,0.1-1.5,0.4s-0.8,0.6-1,0.9c-0.3,0.4-0.4,0.8-0.5,1.3c-0.1,0.5-0.2,1-0.2,1.6C43.7,10.2,43.8,10.7,43.9,11.1z"/>
	<path style="fill:#F4F7F9;" d="M63.9,0v1.7h-7.9v4.8H63v1.7h-6.9V15h-2V0H63.9z"/>
	<path style="fill:#F4F7F9;" d="M66.7,0v15h-1.8V0H66.7z"/>
	<path style="fill:#F4F7F9;" d="M68.2,7.3c0.2-0.7,0.6-1.3,1-1.8s1-0.9,1.7-1.2s1.4-0.4,2.3-0.4c0.9,0,1.6,0.1,2.3,0.4
		C76,4.6,76.6,5,77,5.5s0.8,1.1,1,1.8s0.3,1.4,0.3,2.2s-0.1,1.5-0.3,2.2c-0.2,0.7-0.6,1.3-1,1.8c-0.4,0.5-1,0.9-1.6,1.2
		c-0.7,0.3-1.4,0.4-2.3,0.4c-0.9,0-1.6-0.1-2.3-0.4s-1.2-0.7-1.7-1.2c-0.4-0.5-0.8-1.1-1-1.8c-0.2-0.7-0.3-1.4-0.3-2.2
		S67.9,8,68.2,7.3z M70,11.3c0.2,0.5,0.4,0.9,0.7,1.3c0.3,0.3,0.7,0.6,1.1,0.8c0.4,0.2,0.9,0.3,1.3,0.3s0.9-0.1,1.3-0.3
		c0.4-0.2,0.8-0.4,1.1-0.8c0.3-0.3,0.5-0.8,0.7-1.3s0.3-1.1,0.3-1.8c0-0.7-0.1-1.2-0.3-1.8c-0.2-0.5-0.4-0.9-0.7-1.3
		c-0.3-0.3-0.7-0.6-1.1-0.8c-0.4-0.2-0.9-0.3-1.3-0.3s-0.9,0.1-1.3,0.3c-0.4,0.2-0.8,0.4-1.1,0.8c-0.3,0.4-0.5,0.8-0.7,1.3
		c-0.2,0.5-0.3,1.1-0.3,1.8C69.7,10.2,69.8,10.8,70,11.3z"/>
	<path style="fill:#F4F7F9;" d="M88.3,15l-2.2-8.6h0L83.9,15h-1.9L78.4,4.1h2l2.5,8.9h0l2.2-8.9h2l2.3,8.9h0l2.4-8.9h1.8L90.2,15
		H88.3z"/>
</g>
</svg>
