<?xml version="1.0" encoding="utf-8"?>
<!-- Generator: Adobe Illustrator 26.4.1, SVG Export Plug-In . SVG Version: 6.00 Build 0)  -->
<svg version="1.1" id="Layer_1" xmlns="http://www.w3.org/2000/svg" xmlns:xlink="http://www.w3.org/1999/xlink" x="0px" y="0px"
	 viewBox="0 0 22.69 22.69" style="enable-background:new 0 0 22.69 22.69;" xml:space="preserve">
<style type="text/css">
	.st0{opacity:0.8;fill:#C4683F;}
	.st1{fill:#FFFFFF;}
</style>
<path class="st0" d="M17.02,22.69H5.67C2.54,22.69,0,20.15,0,17.02V5.67C0,2.54,2.54,0,5.67,0h11.35c3.13,0,5.67,2.54,5.67,5.67
	v11.35C22.69,20.15,20.15,22.69,17.02,22.69z"/>
<g>
	<path class="st1" d="M18.86,15.83v1.13c0,0.11-0.09,0.2-0.2,0.2h-2.04v2.04c0,0.11-0.09,0.2-0.2,0.2h-1.13
		c-0.11,0-0.2-0.09-0.2-0.2v-2.04h-2.04c-0.11,0-0.2-0.09-0.2-0.2v-1.13c0-0.11,0.09-0.2,0.2-0.2h2.04v-2.04
		c0-0.11,0.09-0.2,0.2-0.2h1.13c0.11,0,0.2,0.09,0.2,0.2v2.04h2.04C18.77,15.63,18.86,15.72,18.86,15.83z"/>
</g>
<g>
	<path class="st1" d="M18.28,7.92v3.43c0,0.11-0.09,0.2-0.2,0.2h-1.12c-0.11,0-0.2-0.09-0.2-0.2V8.03l-5.41-3.19L5.94,8.03v6.63
		l5.79,3.42c0.05,0.03,0.08,0.07,0.09,0.12c0.02,0.06,0.01,0.11-0.02,0.16l-0.62,0.95c-0.04,0.06-0.1,0.09-0.17,0.09
		c-0.04,0-0.07-0.01-0.1-0.03l-5.84-3.48c-0.41-0.27-0.65-0.68-0.65-1.12V7.92c0-0.47,0.27-0.93,0.66-1.12l5.6-3.31
		c0.22-0.14,0.42-0.2,0.67-0.2s0.45,0.06,0.66,0.2l5.62,3.31C18.04,7.07,18.28,7.48,18.28,7.92z"/>
</g>
</svg>
