<?xml version="1.0" encoding="utf-8"?>
<!-- Generator: Adobe Illustrator 26.4.1, SVG Export Plug-In . SVG Version: 6.00 Build 0)  -->
<svg version="1.1" id="Layer_1" xmlns="http://www.w3.org/2000/svg" xmlns:xlink="http://www.w3.org/1999/xlink" x="0px" y="0px"
	 viewBox="0 0 22.69 22.69" style="enable-background:new 0 0 22.69 22.69;" xml:space="preserve">
<style type="text/css">
	.st0{opacity:0.8;fill:#FDBC1F;}
	.st1{fill:#FFFFFF;}
</style>
<path class="st0" d="M17.02,22.69H5.67C2.54,22.69,0,20.15,0,17.02V5.67C0,2.54,2.54,0,5.67,0h11.35c3.13,0,5.67,2.54,5.67,5.67
	v11.35C22.69,20.15,20.15,22.69,17.02,22.69z"/>
<g>
	<g>
		<path class="st1" d="M8.99,18.77c-1.87-0.59-3.47-1.89-4.44-3.61h2.81C7.72,16.52,8.28,17.75,8.99,18.77z"/>
	</g>
	<g>
		<path class="st1" d="M13.52,15.16c-0.47,1.53-1.24,2.83-2.18,3.72c-0.93-0.89-1.69-2.19-2.17-3.72H13.52z"/>
	</g>
	<g>
		<path class="st1" d="M18.14,15.16c-0.97,1.72-2.57,3.02-4.44,3.61c0.71-1.02,1.27-2.25,1.64-3.61H18.14z"/>
	</g>
	<g>
		<path class="st1" d="M7.02,13.43H3.83c-0.19-0.66-0.28-1.37-0.28-2.09c0-0.55,0.06-1.1,0.17-1.64h3.24
			c-0.06,0.52-0.09,1.07-0.09,1.64C6.87,12.07,6.92,12.77,7.02,13.43z"/>
	</g>
	<g>
		<path class="st1" d="M9,3.9C8.2,5.04,7.61,6.43,7.25,7.97H4.31C5.25,6.01,6.95,4.55,9,3.9z"/>
	</g>
	<g>
		<path class="st1" d="M13.66,7.97H9.04c0.47-1.74,1.27-3.2,2.3-4.17C12.38,4.78,13.19,6.24,13.66,7.97z"/>
	</g>
	<g>
		<path class="st1" d="M14.09,11.34c0,0.72-0.05,1.42-0.16,2.09H8.77c-0.11-0.67-0.17-1.37-0.17-2.09c0-0.53,0.04-1.09,0.11-1.64
			h5.28C14.06,10.25,14.09,10.81,14.09,11.34z"/>
	</g>
	<g>
		<path class="st1" d="M19.15,11.34c0,0.73-0.1,1.44-0.29,2.09h-3.18c0.1-0.66,0.14-1.36,0.14-2.09c0-0.57-0.03-1.12-0.09-1.64h3.24
			C19.09,10.24,19.15,10.79,19.15,11.34z"/>
	</g>
	<g>
		<path class="st1" d="M18.38,7.97h-2.93c-0.36-1.54-0.96-2.93-1.76-4.07C15.74,4.55,17.44,6.01,18.38,7.97z"/>
	</g>
</g>
</svg>
