<?xml version="1.0" encoding="utf-8"?>
<!-- Generator: Adobe Illustrator 26.4.1, SVG Export Plug-In . SVG Version: 6.00 Build 0)  -->
<svg version="1.1" id="Layer_1" xmlns="http://www.w3.org/2000/svg" xmlns:xlink="http://www.w3.org/1999/xlink" x="0px" y="0px"
	 viewBox="0 0 22.69 22.69" style="enable-background:new 0 0 22.69 22.69;" xml:space="preserve">
<style type="text/css">
	.st0{opacity:0.8;fill:#9F4F9D;}
	.st1{fill:#FFFFFF;}
</style>
<path class="st0" d="M17.02,22.69H5.67C2.54,22.69,0,20.15,0,17.02V5.67C0,2.54,2.54,0,5.67,0h11.35c3.13,0,5.67,2.54,5.67,5.67
	v11.35C22.69,20.15,20.15,22.69,17.02,22.69z"/>
<g>
	<g>
		<path class="st1" d="M18.48,10.63l-2.67,2.43l0.63,3.39c0.08,0.45-0.1,0.9-0.46,1.18c-0.21,0.16-0.47,0.24-0.72,0.24
			c-0.18,0-0.36-0.04-0.53-0.12l-3.38-1.66l-3.38,1.66c-0.17,0.08-0.35,0.12-0.53,0.12c-0.26,0-0.51-0.08-0.73-0.24
			c-0.36-0.28-0.53-0.73-0.45-1.18l0.63-3.39l-2.67-2.43c-0.35-0.31-0.48-0.8-0.34-1.24C4.02,8.94,4.4,8.62,4.86,8.55l3.76-0.5
			l1.67-3.15c0.21-0.39,0.61-0.64,1.06-0.64c0.44,0,0.85,0.25,1.06,0.64l1.66,3.15l3.76,0.5c0.47,0.07,0.85,0.39,0.99,0.84
			C18.96,9.83,18.82,10.32,18.48,10.63z"/>
	</g>
</g>
</svg>
