<?xml version="1.0" encoding="utf-8"?>
<!-- Generator: Adobe Illustrator 26.4.1, SVG Export Plug-In . SVG Version: 6.00 Build 0)  -->
<svg version="1.1" id="Layer_1" xmlns="http://www.w3.org/2000/svg" xmlns:xlink="http://www.w3.org/1999/xlink" x="0px" y="0px"
	 viewBox="0 0 21.8 21.8" style="enable-background:new 0 0 21.8 21.8;" xml:space="preserve">
<style type="text/css">
	.st0{opacity:0.8;fill:#3F82C3;enable-background:new    ;}
	.st1{fill:none;stroke:#FFFFFF;stroke-width:1.5;stroke-linecap:round;stroke-linejoin:round;stroke-miterlimit:10;}
	.st2{fill:#FFFFFF;stroke:#FFFFFF;stroke-miterlimit:10;}
	.st3{opacity:0.6;fill:#FFFFFF;enable-background:new    ;}
</style>
<path class="st0" d="M16.13,21.8H5.67C2.54,21.8,0,19.26,0,16.13V5.67C0,2.54,2.54,0,5.67,0h10.46c3.13,0,5.67,2.54,5.67,5.67v10.46
	C21.8,19.26,19.26,21.8,16.13,21.8z"/>
<path class="st1" d="M4.72,13.88v-3.55c0-3.46,2.8-6.26,6.26-6.26s6.26,2.8,6.26,6.26v5.94h-6.26"/>
<path class="st2" d="M4.31,14.79h0.57c0.19,0,0.34-0.15,0.34-0.34v-3.06c0-0.5-0.41-0.91-0.91-0.91l0,0c-0.5,0-0.91,0.41-0.91,0.91
	v2.49C3.4,14.38,3.81,14.79,4.31,14.79z"/>
<path class="st2" d="M17.72,14.79L17.72,14.79c0.5,0,0.91-0.41,0.91-0.91v-2.49c0-0.5-0.41-0.91-0.91-0.91l0,0
	c-0.5,0-0.91,0.41-0.91,0.91v2.49C16.81,14.38,17.22,14.79,17.72,14.79z"/>
<path class="st3" d="M15.45,8.36c-0.57,0.43-1.28,0.68-2.03,0.68c-1.5,0-2.78-0.97-3.29-2.35C9.94,8.53,8.44,9.96,6.62,9.96
	c-0.15,0-0.29-0.01-0.43-0.03c0.2-2.17,1.71-3.94,3.7-4.43C9.95,5.49,10,5.47,10.06,5.46c0.31-0.06,0.63-0.1,0.96-0.1
	C13,5.35,14.7,6.59,15.45,8.36z"/>
<circle class="st3" cx="8.49" cy="11.28" r="0.78"/>
<circle class="st3" cx="13.36" cy="11.28" r="0.78"/>
</svg>
