<?xml version="1.0" encoding="utf-8"?>
<!-- Generator: Adobe Illustrator 26.4.1, SVG Export Plug-In . SVG Version: 6.00 Build 0)  -->
<svg version="1.1" id="Layer_1" xmlns="http://www.w3.org/2000/svg" xmlns:xlink="http://www.w3.org/1999/xlink" x="0px" y="0px"
	 viewBox="0 0 22.69 22.69" style="enable-background:new 0 0 22.69 22.69;" xml:space="preserve">
<style type="text/css">
	.st0{opacity:0.8;fill:#4BBC93;}
	.st1{fill:#FFFFFF;}
</style>
<path class="st0" d="M17.02,22.69H5.67C2.54,22.69,0,20.15,0,17.02V5.67C0,2.54,2.54,0,5.67,0h11.35c3.13,0,5.67,2.54,5.67,5.67
	v11.35C22.69,20.15,20.15,22.69,17.02,22.69z"/>
<path class="st1" d="M9.53,15.24c0.04,0.14,0.06,0.26,0.07,0.37v0.01c0.12,1.45-1.21,2.74-2.95,2.9c-1.07,0.08-2.09-0.28-2.74-0.6
	c1.04-0.75,1.12-1.31,1-2.15l-0.02-0.13c0-0.04-0.01-0.07-0.03-0.11c0-0.01-0.28-0.85,0.09-1.5c0.23-0.39,0.66-0.65,1.31-0.78
	c0.51-0.09,1.03-0.05,1.48,0.12C8.63,13.68,9.31,14.4,9.53,15.24z"/>
<g>
	<path class="st1" d="M18.31,6.03c0,0.3-0.11,0.56-0.31,0.75l-7.34,7.13l-0.32-0.53c-0.07-0.12-0.14-0.23-0.23-0.34
		c-0.16-0.22-0.37-0.4-0.58-0.57c-0.12-0.08-0.23-0.16-0.36-0.24l-0.52-0.31l7.28-7.08c0.45-0.44,1.22-0.4,1.71,0.07l0.26,0.24
		C18.17,5.38,18.31,5.71,18.31,6.03z"/>
</g>
<g>
	<g>
		<path class="st1" d="M11.04,11.93c0.23,0.18,0.44,0.4,0.62,0.63C11.48,12.33,11.27,12.12,11.04,11.93z"/>
	</g>
</g>
</svg>
