<?xml version="1.0" encoding="utf-8"?>
<!-- Generator: Adobe Illustrator 26.4.1, SVG Export Plug-In . SVG Version: 6.00 Build 0)  -->
<svg version="1.1" id="Layer_1" xmlns="http://www.w3.org/2000/svg" xmlns:xlink="http://www.w3.org/1999/xlink" x="0px" y="0px"
	 viewBox="0 0 22.02 22.02" style="enable-background:new 0 0 22.02 22.02;" xml:space="preserve">
<style type="text/css">
	.st0{opacity:0.8;fill:#C44082;}
	.st1{fill:#FFFFFF;}
	.st2{opacity:0.8;fill:#3F82C3;}
</style>
<path class="st0" d="M16.35,22.02H5.67C2.54,22.02,0,19.48,0,16.35V5.67C0,2.54,2.54,0,5.67,0h10.68c3.13,0,5.67,2.54,5.67,5.67
	v10.68C22.02,19.48,19.48,22.02,16.35,22.02z"/>
<path class="st1" d="M8.24,17.82c0,0.4,0.33,0.76,0.77,0.76h3.4c0.44,0,0.77-0.36,0.77-0.76v-0.68H8.24V17.82z M10.71,4.06
	c-3.08,0-5.56,2.26-5.56,5.07c0,1.73,0.93,3.26,2.37,4.18v1.64c0,0.4,0.36,0.73,0.8,0.73h4.79c0.44,0,0.8-0.33,0.8-0.73v-1.64
	c1.45-0.92,2.38-2.45,2.38-4.18C16.28,6.33,13.79,4.06,10.71,4.06z"/>
<path class="st2" d="M168.79,259.58h-11.35c-3.13,0-5.67-2.54-5.67-5.67v-11.35c0-3.13,2.54-5.67,5.67-5.67h11.35
	c3.13,0,5.67,2.54,5.67,5.67v11.35C174.45,257.04,171.92,259.58,168.79,259.58z"/>
</svg>
